#tb 0: 1/25
#media_type 0: video
#codec_id 0: rawvideo
#dimensions 0: 176x288
#sar 0: 0/1
0,          0,          0,        1,   152064, 0x1242647a
0,          1,          1,        1,   152064, 0xd06aa73e
0,          2,          2,        1,   152064, 0xb05e4090
0,          3,          3,        1,   152064, 0x11e4584b
0,          4,          4,        1,   152064, 0x959f7819
